<svg width="343" height="103" viewBox="0 0 343 103" fill="none" xmlns="http://www.w3.org/2000/svg">
<g clip-path="url(#clip0_510_872)">
<path d="M45.6268 84.387L64.6891 73.3814V40.482L36.1973 24.0322L16.7397 35.266L45.6268 51.944L45.6268 84.387Z" fill="url(#paint0_linear_510_872)"/>
<path fill-rule="evenodd" clip-rule="evenodd" d="M28.615 22.7966L45.2863 13.1715L55.7936 7.08153L46.339 1.62291C45.6876 1.24679 44.8849 1.24679 44.2335 1.62291L2.46879 25.7358C1.81733 26.1119 1.41602 26.807 1.41602 27.5592L1.41602 75.7849C1.41602 76.5372 1.81733 77.2323 2.46879 77.6084L44.2335 101.721C44.8849 102.097 45.6876 102.097 46.339 101.721L88.1037 77.6084C88.7552 77.2323 89.1565 76.5372 89.1565 75.7849V64.8495L78.6288 70.9224L45.2863 90.1727L11.9437 70.9224L11.9437 32.4218L28.615 22.7966Z" fill="url(#paint1_linear_510_872)"/>
<path d="M70.16 70.2819L89.222 59.2764V27.5317C89.222 26.8171 88.8408 26.1569 88.222 25.7996L60.7302 9.92725L41.2725 21.1612L70.16 37.8394L70.16 70.2819Z" fill="url(#paint2_linear_510_872)"/>
</g>
<path d="M325.464 76.1039V73.7999L326.232 67.2719H325.56C323.736 73.4159 318.072 75.4319 310.488 75.4319C301.368 75.4319 294.36 71.4959 294.36 60.7439V26.2799C299.928 25.7999 305.4 25.7999 310.968 26.2799V53.0639C310.968 60.3599 313.656 61.4159 317.592 61.4159C322.296 61.4159 324.12 60.2639 325.464 55.2719V26.2799C331.032 25.7999 336.504 25.7999 342.072 26.2799V73.9919C342.072 90.4079 333.144 96.5519 314.424 96.5519C309.624 96.5519 303.48 96.1679 297.624 95.3999C297.432 91.6559 297.912 85.8959 298.872 82.2479C303.768 83.1119 308.472 83.4959 313.08 83.4959C318.744 83.4959 325.464 82.2479 325.464 76.1039Z" fill="black"/>
<path d="M269.107 76.5841L268.243 69.0961H267.571C266.131 74.9521 260.275 77.2561 252.787 77.2561C243.763 77.2561 236.851 73.2241 236.851 62.8561C236.851 49.1281 244.243 46.2481 254.707 46.2481C259.603 46.2481 263.059 46.5361 267.475 47.1121V44.9041C267.475 40.3921 264.595 37.8001 255.091 37.8001C251.443 37.8001 246.739 38.1841 240.979 39.1441C240.499 35.2081 240.499 30.4081 240.979 26.4721C248.179 25.1281 254.035 24.7441 260.275 24.7441C275.923 24.7441 284.083 28.7761 284.083 41.6401V76.5841C280.147 77.0641 272.947 77.0641 269.107 76.5841ZM267.475 61.1281V56.5201C264.979 55.9441 262.291 55.6561 260.563 55.6561C256.051 55.6561 253.459 56.2321 253.459 60.6481C253.459 64.8721 256.051 65.3521 259.315 65.3521C263.155 65.3521 265.843 64.2001 267.475 61.1281Z" fill="black"/>
<path d="M210.847 76.1038V7.36781C214.783 6.88781 223.519 6.88781 227.455 7.36781V76.1038C223.519 76.5838 214.783 76.5838 210.847 76.1038Z" fill="black"/>
<path d="M200.449 44.2321V55.7521C194.305 56.3281 179.713 56.3281 171.745 55.8481V56.9041C171.745 62.8561 174.817 64.2001 183.265 64.2001C188.641 64.2001 192.769 63.6241 198.145 62.6641C198.625 66.6001 198.625 71.5921 198.145 75.4321C191.137 76.6801 185.665 77.2561 178.945 77.2561C164.449 77.2561 155.137 73.0321 155.137 60.2641V41.9281C155.137 28.5841 164.737 24.7441 178.177 24.7441C189.985 24.7441 200.449 29.4481 200.449 44.2321ZM184.321 46.5361V44.0401C184.321 38.4721 181.249 37.8001 177.985 37.8001C174.817 37.8001 171.745 38.4721 171.745 43.9441V47.0161L177.409 46.5361H184.321Z" fill="black"/>
<path d="M115.409 76.1041V25.7041C120.401 25.4161 125.297 25.4161 130.289 25.7041L131.249 34.1521H131.921C133.457 27.5281 139.601 24.7441 148.625 24.7441C149.009 28.6801 149.009 35.1121 148.625 38.9521C137.585 38.9521 134.609 41.1601 132.017 48.0721V76.1041C128.081 76.5841 119.345 76.5841 115.409 76.1041Z" fill="black"/>
<defs>
<linearGradient id="paint0_linear_510_872" x1="32.1368" y1="27.6516" x2="24.5057" y2="80.8734" gradientUnits="userSpaceOnUse">
<stop stop-color="#624AFF"/>
<stop offset="0.98" stop-color="#DD09FF"/>
</linearGradient>
<linearGradient id="paint1_linear_510_872" x1="18.3202" y1="95.4133" x2="30.486" y2="-4.59695" gradientUnits="userSpaceOnUse">
<stop stop-color="#EF41FF"/>
<stop offset="0.67" stop-color="#1F6BFF"/>
<stop offset="1" stop-color="#7DE0FF"/>
</linearGradient>
<linearGradient id="paint2_linear_510_872" x1="62.8262" y1="7.4831" x2="50.7791" y2="55.1001" gradientUnits="userSpaceOnUse">
<stop stop-color="#7DE0FF"/>
<stop offset="0.985" stop-color="#5707FF"/>
</linearGradient>
<clipPath id="clip0_510_872">
<rect width="89" height="102" fill="white" transform="translate(0.786133 0.780273)"/>
</clipPath>
</defs>
</svg>
